<svg width="24" height="24" viewBox="0 0 24 24" fill="none" xmlns="http://www.w3.org/2000/svg">
<path d="M21.0778 16.634C20.5822 17.7332 20.3434 18.224 19.705 19.196C18.8146 20.552 17.557 22.2416 16.0006 22.256C14.6182 22.268 14.263 21.356 12.385 21.3668C10.5082 21.3764 10.117 22.2728 8.73335 22.2596C7.17695 22.2452 5.98535 20.72 5.09375 19.3628C2.60135 15.5708 2.34095 11.1188 3.87815 8.75125C4.97015 7.07005 6.69455 6.08605 8.31455 6.08605C9.96455 6.08605 11.0026 6.99085 12.3658 6.99085C13.6894 6.99085 14.4958 6.08365 16.4038 6.08365C17.8438 6.08365 19.3726 6.86965 20.461 8.22565C16.8946 10.1804 17.473 15.2732 21.0778 16.634ZM14.9566 4.56925C15.649 3.67885 16.1758 2.42365 15.985 1.13965C14.8522 1.21765 13.5286 1.93765 12.7546 2.87725C12.0538 3.72925 11.4742 4.99285 11.6986 6.22165C12.9346 6.25885 14.2138 5.52085 14.9566 4.56925Z" fill="black"/>
</svg>
