<svg width="24" height="24" viewBox="0 0 24 24" fill="none" xmlns="http://www.w3.org/2000/svg">
<g clip-path="url(#clip0_3771_17)">
<path d="M16.4387 15.0569C18.808 13.756 20.6042 12.7647 20.759 12.6877C21.2543 12.4242 21.7657 11.7272 20.759 11.1857C20.434 11.0155 18.684 10.055 16.4387 8.81641L13.3262 11.9598L16.4387 15.0569Z" fill="#FABD05"/>
<path d="M13.3268 11.959L3.41602 21.9475C3.64863 21.9783 3.91128 21.9167 4.22092 21.7465C4.87101 21.3906 11.7624 17.6272 16.4393 15.0569L13.3268 11.959Z" fill="#EB4236"/>
<path d="M13.3285 11.9594L16.441 8.83143C16.441 8.83143 4.91973 2.54392 4.22265 2.17266C3.96 2.01707 3.66577 1.97086 3.40234 2.01707L13.3285 11.9594Z" fill="#34A853"/>
<path d="M13.3276 11.9599L3.40149 2.01758C2.99865 2.11078 2.6582 2.46663 2.6582 3.19451C2.6582 4.35604 2.6582 19.811 2.6582 20.7715C2.6582 21.4378 2.92163 21.9176 3.41689 21.9638L13.3276 11.9599Z" fill="#4287F5"/>
</g>
<defs>
<clipPath id="clip0_3771_17">
<rect width="20" height="20" fill="white" transform="translate(2 2)"/>
</clipPath>
</defs>
</svg>
