<svg width="24" height="24" viewBox="0 0 24 24" fill="none" xmlns="http://www.w3.org/2000/svg">
<g clip-path="url(#clip0_3771_18)">
<path fill-rule="evenodd" clip-rule="evenodd" d="M11.1459 12.4341C11.1509 14.433 11.1569 17.8292 11.1619 20.4688C14.7759 20.9575 18.39 21.4613 21.998 22C21.998 18.8487 22.002 15.7112 21.998 12.7129C18.381 12.7129 14.7649 12.4341 11.1459 12.4341ZM2 12.4351V19.2217C4.72581 19.5895 7.45163 19.941 10.1724 20.3428C10.1774 17.7172 10.1704 15.0909 10.1704 12.4653C7.44662 12.4703 4.72381 12.4261 2 12.4351ZM2 4.84326V11.6108C4.72581 11.6178 7.45163 11.5766 10.1774 11.5796C10.1754 8.96003 10.1754 6.34368 10.1724 3.72412C7.44461 4.06493 4.71679 4.42549 2 4.84326ZM22 11.4717C18.388 11.4857 14.7759 11.5408 11.1619 11.5518C11.1599 8.88922 11.1599 6.22987 11.1619 3.56934C14.7689 3.01864 18.384 2.50072 21.998 2C22 5.15826 21.998 8.31342 22 11.4717Z" fill="#0979DB"/>
</g>
<defs>
<clipPath id="clip0_3771_18">
<rect width="20" height="20" fill="white" transform="translate(2 2)"/>
</clipPath>
</defs>
</svg>
